<svg xmlns="http://www.w3.org/2000/svg" width="1318" height="300" viewBox="0.00 -757.00 3433.17 781.17">
<path d="M76 0L223 0L223-394L307-394L307-510L223-510L223-564C223-636 233-640 307-640L307-743C97-743 76-723 76-535L76-510L14-510L14-394L76-394ZM351 0L497 0L497-224C497-351 539-373 621-373L621-518C558-518 525-495 503-426L495-426L491-510L351-510ZM842 8C1017 8 1033-46 1033-255C1033-466 1017-518 842-518C665-518 650-466 650-255C650-46 665 8 842 8ZM841-108C797-108 795-119 795-255C795-391 797-402 841-402C885-402 886-391 886-255C886-119 885-108 841-108ZM1121 0L1269 0L1269-394L1349-394L1349-510L1269-510L1269-658L1121-658L1121-510L1060-510L1060-394L1121-394ZM1485 8C1534 8 1569-12 1587-60L1596-60L1600 0L1741 0L1741-310C1741-464 1711-518 1551-518C1495-518 1442-513 1392-503L1392-396C1429-400 1467-402 1506-402C1581-402 1595-400 1595-322L1595-299C1558-302 1529-303 1504-303C1409-303 1369-274 1369-148C1369-40 1402 8 1485 8ZM1548-109C1513-109 1508-120 1508-161C1508-207 1514-218 1548-218L1595-218L1595-190C1595-162 1593-141 1588-129C1581-114 1569-109 1548-109ZM1964 8C2114 8 2176-38 2176-182C2176-290 2146-333 2078-349L2078-353C2141-370 2171-419 2171-517C2171-662 2099-696 1965-696C1914-696 1841-688 1791-678L1791-557C1837-562 1882-565 1928-565C1999-565 2013-559 2013-491C2013-428 2004-412 1953-412L1861-412L1861-283L1953-283C2009-283 2019-267 2019-199C2019-130 2004-123 1934-123C1896-123 1848-125 1789-130L1789-11C1840 0 1914 8 1964 8ZM2442 8C2601 8 2644-48 2644-233C2644-409 2595-438 2494-438C2435-438 2405-416 2392-391L2384-391C2384-544 2392-565 2488-565C2522-565 2566-562 2619-555L2619-675C2569-688 2503-696 2460-696C2340-696 2281-663 2251-572C2236-527 2229-450 2229-345C2229-238 2234-161 2244-119C2271-13 2331 8 2442 8ZM2438-120C2389-120 2385-142 2385-221C2385-294 2389-309 2438-309C2490-309 2494-292 2494-215C2494-136 2491-120 2438-120Z" fill="#211F1B"></path>
<g transform="translate(2694.00,-715.00) scale(6.3333)"><circle cx="60" cy="60" r="45" fill="none" stroke="#211F1B" stroke-width="19" stroke-linecap="round" stroke-dasharray="246 37" transform="rotate(-122 60 60)"></circle></g>
</svg>